STARTFONT 2.1
COMMENT Silicon Graphics FREE font
FONT -SGI-Rock-Medium-R-Normal--12-120-72-72-P-66-ISO8859-1
SIZE 12 72 72
FONTBOUNDINGBOX 10 12 0 -2
STARTPROPERTIES 22
_DEC_DEVICE_FONTNAMES "FM=Rock"
FONTNAME_REGISTRY ""
FOUNDRY "SGI"
FAMILY_NAME "Rock"
WEIGHT_NAME "Medium"
SLANT "R"
SETWIDTH_NAME "Normal"
ADD_STYLE_NAME ""
PIXEL_SIZE 12
POINT_SIZE 120
RESOLUTION_X 72
RESOLUTION_Y 72
SPACING "P"
AVERAGE_WIDTH 66
CHARSET_REGISTRY "ISO8859"
CHARSET_ENCODING "1"
CHARSET_COLLECTIONS "ASCII ISO8859-1"
FULL_NAME "Rock"
CAP_HEIGHT 9
FONT_ASCENT 10
FONT_DESCENT 2
X_HEIGHT 6
ENDPROPERTIES
CHARS 190
STARTCHAR space
ENCODING 32
SWIDTH 400 0
DWIDTH 5 0
BBX 1 1 0 0
BITMAP
00
ENDCHAR
STARTCHAR exclam
ENCODING 33
SWIDTH 258 0
DWIDTH 3 0
BBX 2 9 3 0
BITMAP
c0
c0
c0
c0
c0
c0
c0
00
c0
ENDCHAR
STARTCHAR quotedbl
ENCODING 34
SWIDTH 455 0
DWIDTH 5 0
BBX 5 4 3 5
BITMAP
d0
d8
d8
90
ENDCHAR
STARTCHAR numbersign
ENCODING 35
SWIDTH 539 0
DWIDTH 6 0
BBX 5 7 1 1
BITMAP
28
78
f8
50
f8
f0
b0
ENDCHAR
STARTCHAR dollar
ENCODING 36
SWIDTH 562 0
DWIDTH 7 0
BBX 6 10 1 -1
BITMAP
30
7c
60
c0
70
38
0c
f8
f0
30
ENDCHAR
STARTCHAR percent
ENCODING 37
SWIDTH 908 0
DWIDTH 11 0
BBX 10 9 0 0
BITMAP
0100
7300
fb00
de00
7780
0f80
1ec0
1f80
3380
ENDCHAR
STARTCHAR ampersand
ENCODING 38
SWIDTH 656 0
DWIDTH 8 0
BBX 7 9 1 0
BITMAP
10
38
68
78
70
f0
de
dc
7e
ENDCHAR
STARTCHAR quoteright
ENCODING 39
SWIDTH 291 0
DWIDTH 3 0
BBX 2 3 2 6
BITMAP
40
c0
c0
ENDCHAR
STARTCHAR parenleft
ENCODING 40
SWIDTH 420 0
DWIDTH 5 0
BBX 4 10 3 -1
BITMAP
20
60
40
c0
c0
c0
c0
60
20
30
ENDCHAR
STARTCHAR parenright
ENCODING 41
SWIDTH 416 0
DWIDTH 5 0
BBX 4 10 2 -1
BITMAP
40
60
60
30
30
30
30
60
60
c0
ENDCHAR
STARTCHAR asterisk
ENCODING 42
SWIDTH 586 0
DWIDTH 7 0
BBX 6 6 1 1
BITMAP
30
fc
f8
7c
7c
30
ENDCHAR
STARTCHAR plus
ENCODING 43
SWIDTH 630 0
DWIDTH 8 0
BBX 7 7 1 1
BITMAP
10
10
30
f8
fe
30
30
ENDCHAR
STARTCHAR comma
ENCODING 44
SWIDTH 338 0
DWIDTH 4 0
BBX 3 4 3 -2
BITMAP
60
60
e0
c0
ENDCHAR
STARTCHAR minus
ENCODING 45
SWIDTH 608 0
DWIDTH 7 0
BBX 6 2 2 2
BITMAP
fc
f4
ENDCHAR
STARTCHAR period
ENCODING 46
SWIDTH 237 0
DWIDTH 3 0
BBX 2 2 3 0
BITMAP
c0
c0
ENDCHAR
STARTCHAR slash
ENCODING 47
SWIDTH 862 0
DWIDTH 10 0
BBX 9 10 1 -1
BITMAP
0180
0380
0300
0600
0c00
1800
3000
3000
6000
c000
ENDCHAR
STARTCHAR zero
ENCODING 48
SWIDTH 657 0
DWIDTH 8 0
BBX 7 8 1 0
BITMAP
78
6c
c6
c6
c6
cc
7c
38
ENDCHAR
STARTCHAR one
ENCODING 49
SWIDTH 373 0
DWIDTH 4 0
BBX 4 8 1 0
BITMAP
60
f0
f0
30
30
30
30
30
ENDCHAR
STARTCHAR two
ENCODING 50
SWIDTH 568 0
DWIDTH 7 0
BBX 6 8 1 0
BITMAP
e0
70
18
08
18
38
fc
fc
ENDCHAR
STARTCHAR three
ENCODING 51
SWIDTH 464 0
DWIDTH 6 0
BBX 5 9 1 -1
BITMAP
e0
70
18
70
e0
70
30
f0
c0
ENDCHAR
STARTCHAR four
ENCODING 52
SWIDTH 707 0
DWIDTH 8 0
BBX 7 9 1 0
BITMAP
04
0c
1c
34
34
64
fe
74
04
ENDCHAR
STARTCHAR five
ENCODING 53
SWIDTH 563 0
DWIDTH 7 0
BBX 6 9 2 -1
BITMAP
fc
c0
f0
78
18
18
30
60
c0
ENDCHAR
STARTCHAR six
ENCODING 54
SWIDTH 541 0
DWIDTH 6 0
BBX 5 10 1 -1
BITMAP
10
30
30
60
70
d8
c8
d8
f8
20
ENDCHAR
STARTCHAR seven
ENCODING 55
SWIDTH 554 0
DWIDTH 7 0
BBX 6 8 1 0
BITMAP
fc
fc
18
10
30
30
60
60
ENDCHAR
STARTCHAR eight
ENCODING 56
SWIDTH 420 0
DWIDTH 5 0
BBX 5 8 1 0
BITMAP
70
d8
f8
78
f8
c8
f8
70
ENDCHAR
STARTCHAR nine
ENCODING 57
SWIDTH 518 0
DWIDTH 6 0
BBX 5 8 1 0
BITMAP
78
d8
d8
d8
78
30
70
60
ENDCHAR
STARTCHAR colon
ENCODING 58
SWIDTH 243 0
DWIDTH 3 0
BBX 2 5 4 0
BITMAP
c0
c0
00
c0
c0
ENDCHAR
STARTCHAR semicolon
ENCODING 59
SWIDTH 338 0
DWIDTH 4 0
BBX 3 7 2 -2
BITMAP
60
20
00
60
60
e0
c0
ENDCHAR
STARTCHAR less
ENCODING 60
SWIDTH 494 0
DWIDTH 6 0
BBX 5 9 1 0
BITMAP
08
38
30
60
c0
60
30
38
08
ENDCHAR
STARTCHAR equal
ENCODING 61
SWIDTH 562 0
DWIDTH 7 0
BBX 7 5 1 1
BITMAP
fc
bc
08
fe
b4
ENDCHAR
STARTCHAR greater
ENCODING 62
SWIDTH 476 0
DWIDTH 6 0
BBX 6 8 2 0
BITMAP
c0
60
38
1c
18
30
e0
80
ENDCHAR
STARTCHAR question
ENCODING 63
SWIDTH 444 0
DWIDTH 5 0
BBX 5 9 0 -1
BITMAP
70
b8
18
18
38
30
20
30
20
ENDCHAR
STARTCHAR at
ENCODING 64
SWIDTH 561 0
DWIDTH 7 0
BBX 10 11 0 -2
BITMAP
3f00
6b80
c1c0
dcc0
bec0
f6c0
b6c0
bf80
df00
6000
1800
ENDCHAR
STARTCHAR A
ENCODING 65
SWIDTH 803 0
DWIDTH 10 0
BBX 8 9 1 -1
BITMAP
18
1c
3c
34
3e
7e
63
c3
c1
ENDCHAR
STARTCHAR B
ENCODING 66
SWIDTH 596 0
DWIDTH 7 0
BBX 6 8 1 0
BITMAP
f8
dc
dc
f8
f8
cc
dc
f8
ENDCHAR
STARTCHAR C
ENCODING 67
SWIDTH 598 0
DWIDTH 7 0
BBX 6 9 1 -1
BITMAP
18
38
60
c0
c0
c0
e0
7c
1c
ENDCHAR
STARTCHAR D
ENCODING 68
SWIDTH 635 0
DWIDTH 8 0
BBX 7 8 1 0
BITMAP
f0
f8
cc
c6
c6
cc
f8
f0
ENDCHAR
STARTCHAR E
ENCODING 69
SWIDTH 474 0
DWIDTH 6 0
BBX 7 8 1 0
BITMAP
7e
fc
c0
dc
f8
80
de
fc
ENDCHAR
STARTCHAR F
ENCODING 70
SWIDTH 431 0
DWIDTH 5 0
BBX 6 8 1 0
BITMAP
fc
f0
c0
f8
f0
80
c0
c0
ENDCHAR
STARTCHAR G
ENCODING 71
SWIDTH 627 0
DWIDTH 8 0
BBX 7 8 1 0
BITMAP
0c
38
70
e0
c6
c6
fe
3c
ENDCHAR
STARTCHAR H
ENCODING 72
SWIDTH 729 0
DWIDTH 9 0
BBX 8 9 1 -1
BITMAP
c3
c3
c3
ff
ff
c3
c3
c3
c3
ENDCHAR
STARTCHAR I
ENCODING 73
SWIDTH 242 0
DWIDTH 3 0
BBX 2 9 1 -1
BITMAP
c0
c0
c0
c0
c0
c0
c0
c0
c0
ENDCHAR
STARTCHAR J
ENCODING 74
SWIDTH 380 0
DWIDTH 5 0
BBX 4 10 1 -2
BITMAP
30
30
30
30
30
30
60
60
c0
c0
ENDCHAR
STARTCHAR K
ENCODING 75
SWIDTH 620 0
DWIDTH 7 0
BBX 6 9 1 -1
BITMAP
c8
d8
f0
e0
f0
f0
d8
cc
c4
ENDCHAR
STARTCHAR L
ENCODING 76
SWIDTH 474 0
DWIDTH 6 0
BBX 5 8 1 0
BITMAP
c0
c0
c0
c0
c0
c0
f8
f8
ENDCHAR
STARTCHAR M
ENCODING 77
SWIDTH 906 0
DWIDTH 11 0
BBX 9 8 1 0
BITMAP
3700
3700
7d00
7d80
6980
6080
c080
c080
ENDCHAR
STARTCHAR N
ENCODING 78
SWIDTH 781 0
DWIDTH 9 0
BBX 8 9 1 0
BITMAP
01
c3
e3
f3
db
cf
c7
c3
c3
ENDCHAR
STARTCHAR O
ENCODING 79
SWIDTH 804 0
DWIDTH 10 0
BBX 9 8 1 0
BITMAP
3e00
7f00
c300
c100
c180
6380
7f00
3e00
ENDCHAR
STARTCHAR P
ENCODING 80
SWIDTH 583 0
DWIDTH 7 0
BBX 6 8 1 0
BITMAP
f0
f8
cc
f8
f0
c0
c0
c0
ENDCHAR
STARTCHAR Q
ENCODING 81
SWIDTH 794 0
DWIDTH 10 0
BBX 8 9 1 -1
BITMAP
3c
7e
c3
c3
83
c3
ee
7f
0f
ENDCHAR
STARTCHAR R
ENCODING 82
SWIDTH 655 0
DWIDTH 8 0
BBX 6 9 1 0
BITMAP
f0
f8
cc
cc
f8
f0
d8
cc
c4
ENDCHAR
STARTCHAR S
ENCODING 83
SWIDTH 509 0
DWIDTH 6 0
BBX 5 9 1 0
BITMAP
10
70
e0
c0
70
38
18
70
e0
ENDCHAR
STARTCHAR T
ENCODING 84
SWIDTH 674 0
DWIDTH 8 0
BBX 7 8 1 0
BITMAP
fe
fe
18
18
18
18
18
18
ENDCHAR
STARTCHAR U
ENCODING 85
SWIDTH 765 0
DWIDTH 9 0
BBX 8 9 1 0
BITMAP
01
c3
c3
c3
c3
c3
66
7e
3c
ENDCHAR
STARTCHAR V
ENCODING 86
SWIDTH 861 0
DWIDTH 10 0
BBX 9 8 1 0
BITMAP
c180
4180
6300
3300
3600
1e00
1c00
0c00
ENDCHAR
STARTCHAR W
ENCODING 87
SWIDTH 940 0
DWIDTH 11 0
BBX 9 8 1 0
BITMAP
c080
c180
6180
6180
6d80
3f80
3b00
3b00
ENDCHAR
STARTCHAR X
ENCODING 88
SWIDTH 789 0
DWIDTH 9 0
BBX 8 9 1 -1
BITMAP
01
e3
76
3e
1c
1e
36
73
21
ENDCHAR
STARTCHAR Y
ENCODING 89
SWIDTH 753 0
DWIDTH 9 0
BBX 8 9 1 0
BITMAP
c2
e7
3c
18
18
18
18
18
18
ENDCHAR
STARTCHAR Z
ENCODING 90
SWIDTH 625 0
DWIDTH 7 0
BBX 6 9 1 0
BITMAP
fc
fc
18
18
30
60
60
fc
fc
ENDCHAR
STARTCHAR bracketleft
ENCODING 91
SWIDTH 393 0
DWIDTH 5 0
BBX 4 12 1 -2
BITMAP
e0
e0
c0
c0
c0
c0
c0
c0
c0
c0
f0
60
ENDCHAR
STARTCHAR backslash
ENCODING 92
SWIDTH 860 0
DWIDTH 10 0
BBX 9 10 1 -1
BITMAP
c000
6000
3000
3800
1800
0c00
0600
0300
0380
0180
ENDCHAR
STARTCHAR bracketright
ENCODING 93
SWIDTH 365 0
DWIDTH 4 0
BBX 3 11 1 -1
BITMAP
e0
e0
20
20
20
20
20
20
20
20
e0
ENDCHAR
STARTCHAR asciicircum
ENCODING 94
SWIDTH 566 0
DWIDTH 7 0
BBX 6 4 1 4
BITMAP
30
78
78
cc
ENDCHAR
STARTCHAR underscore
ENCODING 95
SWIDTH 812 0
DWIDTH 10 0
BBX 9 2 1 -1
BITMAP
ff80
ff00
ENDCHAR
STARTCHAR quoteleft
ENCODING 96
SWIDTH 321 0
DWIDTH 4 0
BBX 3 3 1 6
BITMAP
c0
e0
40
ENDCHAR
STARTCHAR a
ENCODING 97
SWIDTH 561 0
DWIDTH 7 0
BBX 7 6 1 0
BITMAP
78
dc
cc
dc
7e
2c
ENDCHAR
STARTCHAR b
ENCODING 98
SWIDTH 575 0
DWIDTH 7 0
BBX 6 8 1 0
BITMAP
c0
c0
c0
f8
dc
cc
f8
f0
ENDCHAR
STARTCHAR c
ENCODING 99
SWIDTH 474 0
DWIDTH 6 0
BBX 6 6 1 0
BITMAP
30
70
c0
c0
f8
7c
ENDCHAR
STARTCHAR d
ENCODING 100
SWIDTH 536 0
DWIDTH 6 0
BBX 5 8 1 0
BITMAP
18
18
18
78
f8
d8
f8
38
ENDCHAR
STARTCHAR e
ENCODING 101
SWIDTH 537 0
DWIDTH 6 0
BBX 6 7 1 0
BITMAP
18
74
74
7c
e0
78
3c
ENDCHAR
STARTCHAR f
ENCODING 102
SWIDTH 484 0
DWIDTH 6 0
BBX 4 9 1 0
BITMAP
10
30
60
f0
f0
60
60
60
60
ENDCHAR
STARTCHAR g
ENCODING 103
SWIDTH 527 0
DWIDTH 6 0
BBX 6 9 1 -2
BITMAP
70
7c
9c
8c
fc
3c
08
78
30
ENDCHAR
STARTCHAR h
ENCODING 104
SWIDTH 549 0
DWIDTH 7 0
BBX 5 8 1 0
BITMAP
c0
c0
c0
f0
f8
d8
d8
c8
ENDCHAR
STARTCHAR i
ENCODING 105
SWIDTH 248 0
DWIDTH 3 0
BBX 2 7 1 0
BITMAP
c0
00
c0
c0
c0
c0
c0
ENDCHAR
STARTCHAR j
ENCODING 106
SWIDTH 316 0
DWIDTH 4 0
BBX 3 8 1 -2
BITMAP
60
00
60
60
60
60
60
c0
ENDCHAR
STARTCHAR k
ENCODING 107
SWIDTH 484 0
DWIDTH 6 0
BBX 5 7 1 0
BITMAP
c0
c0
d8
f0
e0
f0
d8
ENDCHAR
STARTCHAR l
ENCODING 108
SWIDTH 260 0
DWIDTH 3 0
BBX 2 8 1 0
BITMAP
c0
c0
c0
c0
c0
c0
c0
c0
ENDCHAR
STARTCHAR m
ENCODING 109
SWIDTH 705 0
DWIDTH 8 0
BBX 7 6 1 0
BITMAP
10
fc
fe
da
5a
5a
ENDCHAR
STARTCHAR n
ENCODING 110
SWIDTH 501 0
DWIDTH 6 0
BBX 5 5 1 0
BITMAP
f0
f0
d8
d8
d8
ENDCHAR
STARTCHAR o
ENCODING 111
SWIDTH 546 0
DWIDTH 7 0
BBX 6 6 1 0
BITMAP
30
78
cc
cc
f8
70
ENDCHAR
STARTCHAR p
ENCODING 112
SWIDTH 574 0
DWIDTH 7 0
BBX 6 7 1 -2
BITMAP
f0
fc
dc
f8
e0
c0
c0
ENDCHAR
STARTCHAR q
ENCODING 113
SWIDTH 614 0
DWIDTH 7 0
BBX 6 7 1 -2
BITMAP
3c
7c
cc
fc
7c
0c
0c
ENDCHAR
STARTCHAR r
ENCODING 114
SWIDTH 414 0
DWIDTH 5 0
BBX 4 6 1 0
BITMAP
b0
f0
e0
c0
c0
c0
ENDCHAR
STARTCHAR s
ENCODING 115
SWIDTH 390 0
DWIDTH 5 0
BBX 5 7 1 0
BITMAP
18
70
c0
f8
78
18
f0
ENDCHAR
STARTCHAR t
ENCODING 116
SWIDTH 497 0
DWIDTH 6 0
BBX 5 8 1 -1
BITMAP
60
f0
f8
60
60
60
30
30
ENDCHAR
STARTCHAR u
ENCODING 117
SWIDTH 563 0
DWIDTH 7 0
BBX 6 7 1 0
BITMAP
80
cc
cc
cc
cc
7c
38
ENDCHAR
STARTCHAR v
ENCODING 118
SWIDTH 553 0
DWIDTH 7 0
BBX 5 6 1 0
BITMAP
88
d8
78
70
30
30
ENDCHAR
STARTCHAR w
ENCODING 119
SWIDTH 782 0
DWIDTH 9 0
BBX 8 6 1 0
BITMAP
01
db
7f
7e
36
24
ENDCHAR
STARTCHAR x
ENCODING 120
SWIDTH 615 0
DWIDTH 7 0
BBX 6 6 1 0
BITMAP
4c
ec
38
38
3c
64
ENDCHAR
STARTCHAR y
ENCODING 121
SWIDTH 559 0
DWIDTH 7 0
BBX 6 7 1 -1
BITMAP
cc
fc
78
30
30
30
30
ENDCHAR
STARTCHAR z
ENCODING 122
SWIDTH 524 0
DWIDTH 6 0
BBX 5 6 1 0
BITMAP
f8
f8
30
60
f8
f8
ENDCHAR
STARTCHAR braceleft
ENCODING 123
SWIDTH 408 0
DWIDTH 5 0
BBX 4 10 1 -1
BITMAP
30
60
60
60
60
c0
60
60
20
30
ENDCHAR
STARTCHAR bar
ENCODING 124
SWIDTH 250 0
DWIDTH 3 0
BBX 2 10 1 -1
BITMAP
c0
c0
c0
c0
c0
c0
c0
c0
c0
c0
ENDCHAR
STARTCHAR braceright
ENCODING 125
SWIDTH 408 0
DWIDTH 5 0
BBX 4 10 1 -1
BITMAP
c0
60
60
60
60
30
60
60
c0
c0
ENDCHAR
STARTCHAR asciitilde
ENCODING 126
SWIDTH 613 0
DWIDTH 7 0
BBX 6 3 2 2
BITMAP
70
fc
98
ENDCHAR
STARTCHAR exclamdown
ENCODING 161
SWIDTH 258 0
DWIDTH 3 0
BBX 2 9 4 -2
BITMAP
c0
00
40
c0
c0
c0
c0
c0
c0
ENDCHAR
STARTCHAR cent
ENCODING 162
SWIDTH 474 0
DWIDTH 6 0
BBX 6 10 1 -1
BITMAP
18
18
3c
7c
c0
c0
ec
78
30
20
ENDCHAR
STARTCHAR sterling
ENCODING 163
SWIDTH 833 0
DWIDTH 10 0
BBX 9 9 0 0
BITMAP
1f00
3d00
3000
2000
7c00
f000
3000
7580
df00
ENDCHAR
STARTCHAR currency
ENCODING 164
SWIDTH 833 0
DWIDTH 10 0
BBX 7 8 0 0
BITMAP
86
fc
2c
24
3c
3e
66
40
ENDCHAR
STARTCHAR yen
ENCODING 165
SWIDTH 753 0
DWIDTH 9 0
BBX 8 10 0 0
BITMAP
83
c7
66
36
1c
7e
18
7f
58
18
ENDCHAR
STARTCHAR brokenbar
ENCODING 166
SWIDTH 250 0
DWIDTH 3 0
BBX 2 11 5 -1
BITMAP
80
c0
c0
c0
c0
c0
00
c0
c0
c0
c0
ENDCHAR
STARTCHAR section
ENCODING 167
SWIDTH 833 0
DWIDTH 10 0
BBX 8 11 1 -2
BITMAP
1e
3f
60
f8
de
c6
72
3e
0e
fc
78
ENDCHAR
STARTCHAR dieresis
ENCODING 168
SWIDTH 833 0
DWIDTH 10 0
BBX 5 4 2 5
BITMAP
98
d8
d8
88
ENDCHAR
STARTCHAR copyright
ENCODING 169
SWIDTH 833 0
DWIDTH 10 0
BBX 10 11 0 -1
BITMAP
1c00
3f00
6180
c4c0
9ec0
b0c0
bac0
dcc0
e180
7f80
3d00
ENDCHAR
STARTCHAR ordfeminine
ENCODING 170
SWIDTH 561 0
DWIDTH 7 0
BBX 5 6 1 3
BITMAP
78
d8
98
f8
48
f8
ENDCHAR
STARTCHAR guillemotleft
ENCODING 171
SWIDTH 833 0
DWIDTH 10 0
BBX 9 9 0 0
BITMAP
0800
3980
3300
6600
c600
e700
6300
3180
1980
ENDCHAR
STARTCHAR logicalnot
ENCODING 172
SWIDTH 833 0
DWIDTH 10 0
BBX 7 4 1 1
BITMAP
bc
fe
06
06
ENDCHAR
STARTCHAR hyphen
ENCODING 173
SWIDTH 833 0
DWIDTH 10 0
BBX 7 2 1 2
BITMAP
7e
fc
ENDCHAR
STARTCHAR registered
ENCODING 174
SWIDTH 833 0
DWIDTH 10 0
BBX 10 11 0 -1
BITMAP
1e00
3f00
6180
dcc0
96c0
9cc0
9ec0
d6c0
c180
7f80
3f00
ENDCHAR
STARTCHAR macron
ENCODING 175
SWIDTH 833 0
DWIDTH 10 0
BBX 6 2 2 6
BITMAP
f8
7c
ENDCHAR
STARTCHAR degree
ENCODING 176
SWIDTH 833 0
DWIDTH 10 0
BBX 5 4 2 4
BITMAP
70
f8
d0
70
ENDCHAR
STARTCHAR plusminus
ENCODING 177
SWIDTH 833 0
DWIDTH 10 0
BBX 8 10 1 0
BITMAP
10
18
18
7e
ff
18
18
10
ff
7e
ENDCHAR
STARTCHAR twosuperior
ENCODING 178
SWIDTH 833 0
DWIDTH 10 0
BBX 4 6 3 4
BITMAP
40
e0
60
c0
f0
e0
ENDCHAR
STARTCHAR threesuperior
ENCODING 179
SWIDTH 833 0
DWIDTH 10 0
BBX 4 5 2 4
BITMAP
e0
60
e0
30
e0
ENDCHAR
STARTCHAR acute
ENCODING 180
SWIDTH 833 0
DWIDTH 10 0
BBX 3 3 4 7
BITMAP
60
c0
80
ENDCHAR
STARTCHAR mu
ENCODING 181
SWIDTH 563 0
DWIDTH 7 0
BBX 6 9 1 -2
BITMAP
80
cc
cc
cc
cc
fc
f8
c0
c0
ENDCHAR
STARTCHAR paragraph
ENCODING 182
SWIDTH 833 0
DWIDTH 10 0
BBX 8 10 1 -1
BITMAP
3f
76
b6
b6
f6
76
36
36
36
73
ENDCHAR
STARTCHAR periodcentered
ENCODING 183
SWIDTH 833 0
DWIDTH 10 0
BBX 3 3 3 2
BITMAP
60
e0
40
ENDCHAR
STARTCHAR cedilla
ENCODING 184
SWIDTH 833 0
DWIDTH 10 0
BBX 3 3 3 -2
BITMAP
40
60
c0
ENDCHAR
STARTCHAR onesuperior
ENCODING 185
SWIDTH 833 0
DWIDTH 10 0
BBX 3 5 2 4
BITMAP
60
e0
60
60
60
ENDCHAR
STARTCHAR ordmasculine
ENCODING 186
SWIDTH 561 0
DWIDTH 7 0
BBX 5 6 2 3
BITMAP
70
d8
98
f0
00
f8
ENDCHAR
STARTCHAR guillemotright
ENCODING 187
SWIDTH 833 0
DWIDTH 10 0
BBX 10 9 0 0
BITMAP
c000
c600
6300
3980
18c0
39c0
3180
6700
ce00
ENDCHAR
STARTCHAR onequarter
ENCODING 188
SWIDTH 561 0
DWIDTH 7 0
BBX 9 9 1 1
BITMAP
6000
e100
6300
6600
6c80
1b80
7680
c780
0180
ENDCHAR
STARTCHAR onehalf
ENCODING 189
SWIDTH 561 0
DWIDTH 7 0
BBX 9 11 0 -1
BITMAP
6000
e100
6300
6600
6c00
3a00
6700
c300
0600
0780
0700
ENDCHAR
STARTCHAR threequarters
ENCODING 190
SWIDTH 561 0
DWIDTH 7 0
BBX 10 8 0 1
BITMAP
e080
6100
e300
3640
edc0
1b40
33c0
60c0
ENDCHAR
STARTCHAR questiondown
ENCODING 191
SWIDTH 444 0
DWIDTH 5 0
BBX 5 10 2 -2
BITMAP
60
00
60
20
60
e0
c0
c0
e8
70
ENDCHAR
STARTCHAR Agrave
ENCODING 192
SWIDTH 803 0
DWIDTH 10 0
BBX 8 11 1 -1
BITMAP
30
18
00
18
1c
34
3e
7e
63
c3
c1
ENDCHAR
STARTCHAR Aacute
ENCODING 193
SWIDTH 803 0
DWIDTH 10 0
BBX 8 11 1 -1
BITMAP
0c
18
00
18
1c
34
3e
7e
63
c3
c1
ENDCHAR
STARTCHAR Acircumflex
ENCODING 194
SWIDTH 803 0
DWIDTH 10 0
BBX 8 11 1 -1
BITMAP
18
2c
00
18
1c
34
3e
7e
63
c3
c1
ENDCHAR
STARTCHAR Atilde
ENCODING 195
SWIDTH 803 0
DWIDTH 10 0
BBX 8 11 1 -1
BITMAP
3a
2c
00
18
1c
34
3e
7e
63
c3
c1
ENDCHAR
STARTCHAR Adieresis
ENCODING 196
SWIDTH 803 0
DWIDTH 10 0
BBX 8 11 1 -1
BITMAP
24
34
00
18
1c
34
3e
7e
63
c3
c1
ENDCHAR
STARTCHAR Aring
ENCODING 197
SWIDTH 803 0
DWIDTH 10 0
BBX 8 11 1 -1
BITMAP
1c
34
1c
18
1c
34
3e
7e
63
c3
c1
ENDCHAR
STARTCHAR AE
ENCODING 198
SWIDTH 803 0
DWIDTH 10 0
BBX 9 9 0 0
BITMAP
0f80
1f00
3c00
2c00
6f00
7e00
7c00
cf00
cf80
ENDCHAR
STARTCHAR Ccedilla
ENCODING 199
SWIDTH 598 0
DWIDTH 7 0
BBX 7 10 1 -2
BITMAP
3c
78
c0
c0
c0
c0
e6
7c
18
30
ENDCHAR
STARTCHAR Egrave
ENCODING 200
SWIDTH 474 0
DWIDTH 6 0
BBX 7 10 1 0
BITMAP
30
18
00
fc
fe
c0
f8
80
fe
fe
ENDCHAR
STARTCHAR Eacute
ENCODING 201
SWIDTH 474 0
DWIDTH 6 0
BBX 7 10 2 0
BITMAP
18
30
00
fc
fe
c0
f8
80
fe
fe
ENDCHAR
STARTCHAR Ecircumflex
ENCODING 202
SWIDTH 474 0
DWIDTH 6 0
BBX 7 10 2 0
BITMAP
30
58
00
fc
fe
c0
f8
80
fe
fe
ENDCHAR
STARTCHAR Edieresis
ENCODING 203
SWIDTH 474 0
DWIDTH 6 0
BBX 7 10 1 0
BITMAP
48
68
00
fc
fe
c0
f8
80
fe
fe
ENDCHAR
STARTCHAR Igrave
ENCODING 204
SWIDTH 242 0
DWIDTH 3 0
BBX 3 10 2 0
BITMAP
c0
60
00
60
60
60
60
60
60
60
ENDCHAR
STARTCHAR Iacute
ENCODING 205
SWIDTH 242 0
DWIDTH 3 0
BBX 3 10 4 0
BITMAP
60
c0
00
c0
c0
c0
c0
c0
c0
c0
ENDCHAR
STARTCHAR Icircumflex
ENCODING 206
SWIDTH 242 0
DWIDTH 3 0
BBX 4 10 2 0
BITMAP
60
b0
00
60
60
60
60
60
60
60
ENDCHAR
STARTCHAR Idieresis
ENCODING 207
SWIDTH 242 0
DWIDTH 3 0
BBX 4 10 3 0
BITMAP
50
d0
00
60
60
60
60
60
60
60
ENDCHAR
STARTCHAR Eth
ENCODING 208
SWIDTH 635 0
DWIDTH 8 0
BBX 8 8 0 0
BITMAP
78
7c
66
73
f3
66
7c
78
ENDCHAR
STARTCHAR Ntilde
ENCODING 209
SWIDTH 781 0
DWIDTH 9 0
BBX 8 10 1 0
BITMAP
74
58
01
c3
f3
db
cf
c7
c7
c3
ENDCHAR
STARTCHAR Ograve
ENCODING 210
SWIDTH 804 0
DWIDTH 10 0
BBX 9 10 0 0
BITMAP
3000
1800
0000
3e00
7f00
c300
c180
6380
7f00
3e00
ENDCHAR
STARTCHAR Oacute
ENCODING 211
SWIDTH 804 0
DWIDTH 10 0
BBX 9 10 1 0
BITMAP
0c00
1800
0000
3e00
7f00
c300
c180
6380
7f00
3e00
ENDCHAR
STARTCHAR Ocircumflex
ENCODING 212
SWIDTH 804 0
DWIDTH 10 0
BBX 9 10 1 0
BITMAP
1800
2c00
0000
3e00
7f00
c300
c180
6380
7f00
3e00
ENDCHAR
STARTCHAR Otilde
ENCODING 213
SWIDTH 804 0
DWIDTH 10 0
BBX 9 10 0 0
BITMAP
3a00
2c00
0000
3e00
7f00
c300
c180
6380
7f00
3e00
ENDCHAR
STARTCHAR Odieresis
ENCODING 214
SWIDTH 804 0
DWIDTH 10 0
BBX 9 10 1 0
BITMAP
2400
3400
0000
3e00
7f00
c300
c180
6380
7f00
3e00
ENDCHAR
STARTCHAR multiply
ENCODING 215
SWIDTH 833 0
DWIDTH 10 0
BBX 7 6 1 0
BITMAP
c6
6c
38
1c
76
62
ENDCHAR
STARTCHAR Oslash
ENCODING 216
SWIDTH 804 0
DWIDTH 10 0
BBX 10 7 0 0
BITMAP
1f40
3f80
6380
6cc0
31c0
7f80
9f00
ENDCHAR
STARTCHAR Ugrave
ENCODING 217
SWIDTH 765 0
DWIDTH 9 0
BBX 8 10 1 0
BITMAP
30
18
01
c3
c3
c3
c3
66
7e
3c
ENDCHAR
STARTCHAR Uacute
ENCODING 218
SWIDTH 765 0
DWIDTH 9 0
BBX 8 10 1 0
BITMAP
0c
18
01
c3
c3
c3
c3
66
7e
3c
ENDCHAR
STARTCHAR Ucircumflex
ENCODING 219
SWIDTH 765 0
DWIDTH 9 0
BBX 8 10 1 0
BITMAP
18
2c
01
c3
c3
c3
c3
66
7e
3c
ENDCHAR
STARTCHAR Udieresis
ENCODING 220
SWIDTH 765 0
DWIDTH 9 0
BBX 8 10 1 0
BITMAP
24
34
01
c3
c3
c3
c3
66
7e
3c
ENDCHAR
STARTCHAR Yacute
ENCODING 221
SWIDTH 753 0
DWIDTH 9 0
BBX 8 10 1 0
BITMAP
0c
18
c2
e7
3c
18
18
18
18
18
ENDCHAR
STARTCHAR Thorn
ENCODING 222
SWIDTH 583 0
DWIDTH 7 0
BBX 7 9 0 0
BITMAP
f0
e0
78
6c
66
7c
78
60
f0
ENDCHAR
STARTCHAR germandbls
ENCODING 223
SWIDTH 583 0
DWIDTH 7 0
BBX 8 9 1 0
BITMAP
3c
7e
66
7c
6e
67
63
63
ce
ENDCHAR
STARTCHAR agrave
ENCODING 224
SWIDTH 561 0
DWIDTH 7 0
BBX 7 9 1 0
BITMAP
60
30
00
78
dc
cc
dc
7e
2c
ENDCHAR
STARTCHAR aacute
ENCODING 225
SWIDTH 561 0
DWIDTH 7 0
BBX 7 9 1 0
BITMAP
18
30
00
78
dc
cc
dc
7e
2c
ENDCHAR
STARTCHAR acircumflex
ENCODING 226
SWIDTH 561 0
DWIDTH 7 0
BBX 7 9 2 0
BITMAP
30
58
00
78
dc
cc
dc
7e
2c
ENDCHAR
STARTCHAR atilde
ENCODING 227
SWIDTH 561 0
DWIDTH 7 0
BBX 7 9 1 0
BITMAP
74
58
00
78
dc
cc
dc
7e
2c
ENDCHAR
STARTCHAR adieresis
ENCODING 228
SWIDTH 561 0
DWIDTH 7 0
BBX 7 9 1 0
BITMAP
48
68
00
78
dc
cc
dc
7e
2c
ENDCHAR
STARTCHAR aring
ENCODING 229
SWIDTH 561 0
DWIDTH 7 0
BBX 7 10 1 0
BITMAP
38
68
38
00
78
dc
cc
dc
7e
2c
ENDCHAR
STARTCHAR ae
ENCODING 230
SWIDTH 537 0
DWIDTH 6 0
BBX 8 7 1 0
BITMAP
6e
fb
1b
7f
d8
df
76
ENDCHAR
STARTCHAR ccedilla
ENCODING 231
SWIDTH 474 0
DWIDTH 6 0
BBX 6 8 1 -2
BITMAP
3c
70
c0
c0
fc
78
18
30
ENDCHAR
STARTCHAR egrave
ENCODING 232
SWIDTH 537 0
DWIDTH 6 0
BBX 6 10 1 0
BITMAP
30
18
00
18
74
74
7c
e0
78
3c
ENDCHAR
STARTCHAR eacute
ENCODING 233
SWIDTH 537 0
DWIDTH 6 0
BBX 6 10 1 0
BITMAP
0c
18
00
18
74
74
7c
e0
78
3c
ENDCHAR
STARTCHAR ecircumflex
ENCODING 234
SWIDTH 537 0
DWIDTH 6 0
BBX 6 10 2 0
BITMAP
18
2c
00
18
74
74
7c
e0
78
3c
ENDCHAR
STARTCHAR edieresis
ENCODING 235
SWIDTH 537 0
DWIDTH 6 0
BBX 6 10 1 0
BITMAP
48
68
00
18
74
74
7c
e0
78
3c
ENDCHAR
STARTCHAR igrave
ENCODING 236
SWIDTH 248 0
DWIDTH 3 0
BBX 3 8 0 0
BITMAP
c0
60
00
60
60
60
60
60
ENDCHAR
STARTCHAR iacute
ENCODING 237
SWIDTH 248 0
DWIDTH 3 0
BBX 3 8 2 0
BITMAP
60
c0
00
c0
c0
c0
c0
c0
ENDCHAR
STARTCHAR icircumflex
ENCODING 238
SWIDTH 248 0
DWIDTH 3 0
BBX 4 8 1 0
BITMAP
60
b0
00
60
60
60
60
60
ENDCHAR
STARTCHAR idieresis
ENCODING 239
SWIDTH 248 0
DWIDTH 3 0
BBX 4 8 2 0
BITMAP
90
d0
00
60
60
60
60
60
ENDCHAR
STARTCHAR eth
ENCODING 240
SWIDTH 546 0
DWIDTH 7 0
BBX 6 10 1 0
BITMAP
68
3c
f0
18
3c
7c
cc
cc
f8
70
ENDCHAR
STARTCHAR ntilde
ENCODING 241
SWIDTH 501 0
DWIDTH 6 0
BBX 5 8 1 0
BITMAP
e8
b0
00
f0
f0
d8
d8
d8
ENDCHAR
STARTCHAR ograve
ENCODING 242
SWIDTH 546 0
DWIDTH 7 0
BBX 6 9 3 0
BITMAP
60
30
00
30
78
cc
cc
f8
70
ENDCHAR
STARTCHAR oacute
ENCODING 243
SWIDTH 546 0
DWIDTH 7 0
BBX 6 9 1 0
BITMAP
18
30
00
30
78
cc
cc
f8
70
ENDCHAR
STARTCHAR ocircumflex
ENCODING 244
SWIDTH 546 0
DWIDTH 7 0
BBX 6 9 2 0
BITMAP
30
58
00
30
78
cc
cc
f8
70
ENDCHAR
STARTCHAR otilde
ENCODING 245
SWIDTH 546 0
DWIDTH 7 0
BBX 6 9 1 0
BITMAP
74
58
00
30
78
cc
cc
f8
70
ENDCHAR
STARTCHAR odieresis
ENCODING 246
SWIDTH 546 0
DWIDTH 7 0
BBX 6 9 2 0
BITMAP
48
68
00
30
78
cc
cc
f8
70
ENDCHAR
STARTCHAR divide
ENCODING 247
SWIDTH 833 0
DWIDTH 10 0
BBX 7 8 1 0
BITMAP
08
18
00
fe
fe
00
30
30
ENDCHAR
STARTCHAR oslash
ENCODING 248
SWIDTH 546 0
DWIDTH 7 0
BBX 7 6 1 0
BITMAP
1a
3c
6e
76
7c
b8
ENDCHAR
STARTCHAR ugrave
ENCODING 249
SWIDTH 563 0
DWIDTH 7 0
BBX 6 9 1 0
BITMAP
60
30
80
cc
cc
cc
cc
7c
38
ENDCHAR
STARTCHAR uacute
ENCODING 250
SWIDTH 563 0
DWIDTH 7 0
BBX 6 9 1 0
BITMAP
18
30
80
cc
cc
cc
cc
7c
38
ENDCHAR
STARTCHAR ucircumflex
ENCODING 251
SWIDTH 563 0
DWIDTH 7 0
BBX 6 9 1 0
BITMAP
30
58
00
8c
cc
cc
cc
7c
38
ENDCHAR
STARTCHAR udieresis
ENCODING 252
SWIDTH 563 0
DWIDTH 7 0
BBX 6 9 1 0
BITMAP
48
68
00
8c
cc
cc
cc
7c
38
ENDCHAR
STARTCHAR yacute
ENCODING 253
SWIDTH 559 0
DWIDTH 7 0
BBX 6 10 1 -1
BITMAP
18
30
00
cc
fc
78
30
30
30
30
ENDCHAR
STARTCHAR thorn
ENCODING 254
SWIDTH 833 0
DWIDTH 10 0
BBX 7 10 1 -2
BITMAP
e0
60
7c
66
66
6e
7c
60
e0
f0
ENDCHAR
STARTCHAR ydieresis
ENCODING 255
SWIDTH 559 0
DWIDTH 7 0
BBX 6 10 1 -1
BITMAP
48
68
00
cc
fc
78
30
30
30
30
ENDCHAR
ENDFONT
